<?xml version="1.0" standalone="no"?><!DOCTYPE svg PUBLIC "-//W3C//DTD SVG 1.1//EN" "http://www.w3.org/Graphics/SVG/1.1/DTD/svg11.dtd"><svg t="1595063256648" class="icon" viewBox="0 0 1024 1024" version="1.1" xmlns="http://www.w3.org/2000/svg" p-id="7949" xmlns:xlink="http://www.w3.org/1999/xlink" width="200" height="200"><defs><style type="text/css"></style></defs><path d="M512 230.741221c-110.49558 0-200.390983 89.895403-200.390983 200.390983 0 110.49558 89.895403 200.390983 200.390983 200.390983 110.49558 0 200.390983-89.895403 200.390983-200.390983C712.390983 320.636624 622.49558 230.741221 512 230.741221zM512 570.124815c-76.640518 0-138.992611-62.352093-138.992611-138.992611 0-76.640518 62.352093-138.992611 138.992611-138.992611 76.641541 0 138.992611 62.352093 138.992611 138.992611C650.992611 507.772722 588.640518 570.124815 512 570.124815z" p-id="7950"></path><path d="M849.859891 288.391223c-18.470677-43.668569-44.905746-82.880639-78.571497-116.54639-33.665751-33.665751-72.878844-60.101843-116.547413-78.571497-45.227064-19.129686-93.251847-28.828582-142.740982-28.828582-49.489134 0-97.513918 9.699919-142.740982 28.828582-43.668569 18.469654-82.880639 44.905746-116.54639 78.571497-33.665751 33.665751-60.101843 72.877821-78.571497 116.54639-19.129686 45.227064-28.828582 93.251847-28.828582 142.740982 0 67.580165 18.862603 137.485281 56.0649 207.774137 29.129434 55.036477 69.559239 110.491487 120.165824 164.821883 85.46858 91.759867 169.894412 148.362003 173.447331 150.726863 5.151323 3.430122 11.08036 5.14416 17.011442 5.14416 5.887081 0 11.776208-1.690502 16.903995-5.072529 3.553942-2.344395 88.023776-58.464553 173.525102-149.999292 50.625004-54.196343 91.067089-109.634979 120.204709-164.775834 37.196157-70.390163 56.054667-140.579759 56.054667-208.619388C878.688473 381.64307 868.988554 333.618287 849.859891 288.391223zM768.675894 610.444103c-26.449395 50.213635-63.531965 101.088326-110.219287 151.21191-58.675354 62.992683-118.097722 109.058858-146.374742 129.651872-66.432015-48.812729-305.371966-239.758596-305.371966-460.175681 0-81.545224 31.755238-158.211325 89.417519-215.872582 57.662281-57.662281 134.326335-89.417519 215.872582-89.417519 81.545224 0 158.210301 31.755238 215.872582 89.417519 57.662281 57.661258 89.417519 134.326335 89.417519 215.872582C817.290101 488.87328 800.933575 549.20332 768.675894 610.444103z" p-id="7951"></path></svg>